name analog
datacolumns 19
datarows 52
range 0.5435 0.5690000000000001
endheader
time	ground_force_vx	ground_force_vy	ground_force_vz	ground_force_px	ground_force_py	ground_force_pz	l_ground_force_vx	l_ground_force_vy	l_ground_force_vz	l_ground_force_px	l_ground_force_py	l_ground_force_pz	ground_torque_x	ground_torque_y	ground_torque_z	l_ground_torque_x	l_ground_torque_y	l_ground_torque_z
0.5435	-0.0	-0.0	-0.0	-0.0	-0.0	-0.0	-3.001392602920532	-2.2521700859069824	-801.5358276367188	-0.0	-0.0	-0.0	-0.0	-0.0	-0.0	244396.875	-13632.8037109375	-1807.272705078125
0.544	-0.0	-0.0	-0.0	-0.0	-0.0	-0.0	-2.9572200775146484	-2.104758977890014	-802.9304809570312	-0.0	-0.0	-0.0	-0.0	-0.0	-0.0	245292.15625	-13785.0498046875	-1831.95263671875
0.5445	-0.0	-0.0	-0.0	-0.0	-0.0	-0.0	-2.8093433380126958	-2.414461851119995	-806.657958984375	-0.0	-0.0	-0.0	-0.0	-0.0	-0.0	245498.421875	-13989.240234375	-1886.1932373046875
0.545	-0.0	-0.0	-0.0	-0.0	-0.0	-0.0	-2.15840220451355	-2.4577224254608154	-807.997314453125	-0.0	-0.0	-0.0	-0.0	-0.0	-0.0	246470.0625	-13933.625	-1930.3218994140625
0.5455	-0.0	-0.0	-0.0	-0.0	-0.0	-0.0	-1.804389476776123	-2.3701155185699463	-810.4384765625	-0.0	-0.0	-0.0	-0.0	-0.0	-0.0	247006.546875	-14369.8056640625	-1742.2764892578125
0.546	-0.0	-0.0	-0.0	-0.0	-0.0	-0.0	-1.374451994895935	-3.1057918071746826	-812.652587890625	-0.0	-0.0	-0.0	-0.0	-0.0	-0.0	247224.296875	-14403.072265625	-1474.828369140625
0.5465	-0.0	-0.0	-0.0	-0.0	-0.0	-0.0	-0.7242587804794312	-4.194644927978516	-812.3037719726562	-0.0	-0.0	-0.0	-0.0	-0.0	-0.0	247219.140625	-14833.4384765625	-1301.9254150390625
0.547	-0.0	-0.0	-0.0	-0.0	-0.0	-0.0	-0.2515973150730133	-5.71047306060791	-811.1995239257812	-0.0	-0.0	-0.0	-0.0	-0.0	-0.0	246862.90625	-14428.1591796875	-1099.198974609375
0.5475	-0.0	-0.0	-0.0	-0.0	-0.0	-0.0	-0.3548431396484375	-6.990128993988037	-810.2667236328125	-0.0	-0.0	-0.0	-0.0	-0.0	-0.0	246128.921875	-14599.0654296875	-1184.318603515625
0.548	-0.0	-0.0	-0.0	-0.0	-0.0	-0.0	-0.4743847846984863	-7.97776460647583	-809.1626586914062	-0.0	-0.0	-0.0	-0.0	-0.0	-0.0	245467.359375	-14674.8388671875	-1100.5654296875
0.5485	-0.0	-0.0	-0.0	-0.0	-0.0	-0.0	-0.1341241002082824	-9.14234733581543	-806.7675170898438	-0.0	-0.0	-0.0	-0.0	-0.0	-0.0	245057.21875	-14364.482421875	-912.3505859375
0.549	-0.0	-0.0	-0.0	-0.0	-0.0	-0.0	0.4843981862068176	-9.787044525146484	-805.9552612304688	-0.0	-0.0	-0.0	-0.0	-0.0	-0.0	244542.78125	-14611.859375	-620.272705078125
0.5495	-0.0	-0.0	-0.0	-0.0	-0.0	-0.0	1.728607416152954	-9.86092472076416	-805.61572265625	-0.0	-0.0	-0.0	-0.0	-0.0	-0.0	244050.640625	-14648.408203125	-308.3623352050781
0.55	-0.0	-0.0	-0.0	-0.0	-0.0	-0.0	2.7070443630218506	-9.772454261779783	-803.7470703125	-0.0	-0.0	-0.0	-0.0	-0.0	-0.0	243814.390625	-14857.3017578125	74.0597152709961
0.5505	-0.0	-0.0	-0.0	-0.0	-0.0	-0.0	3.456764936447144	-9.6412935256958	-803.1165771484375	-0.0	-0.0	-0.0	-0.0	-0.0	-0.0	243114.75	-15095.4814453125	370.3158874511719
0.551	-0.0	-0.0	-0.0	-0.0	-0.0	-0.0	4.40388822555542	-9.5702543258667	-799.5695190429688	-0.0	-0.0	-0.0	-0.0	-0.0	-0.0	242181.875	-15562.1552734375	439.8480529785156
0.5515	-0.0	-0.0	-0.0	-0.0	-0.0	-0.0	4.7761549949646	-9.627063751220703	-797.58740234375	-0.0	-0.0	-0.0	-0.0	-0.0	-0.0	241578.890625	-15481.83203125	555.05322265625
0.552	-0.0	-0.0	-0.0	-0.0	-0.0	-0.0	3.991985321044922	-9.743640899658203	-794.1942138671875	-0.0	-0.0	-0.0	-0.0	-0.0	-0.0	241097.09375	-15681.9375	321.9236755371094
0.5525	-0.0	-0.0	-0.0	-0.0	-0.0	-0.0	3.640925407409668	-10.08653163909912	-793.201904296875	-0.0	-0.0	-0.0	-0.0	-0.0	-0.0	241157.40625	-15778.359375	24.95832061767578
0.553	-0.0	-0.0	-0.0	-0.0	-0.0	-0.0	2.5121586322784424	-10.142927169799805	-799.2080078125	-0.0	-0.0	-0.0	-0.0	-0.0	-0.0	242178.90625	-15985.9580078125	-331.8184814453125
0.5535	-0.0	-0.0	-0.0	-0.0	-0.0	-0.0	2.75003433227539	-9.496654510498049	-802.001220703125	-0.0	-0.0	-0.0	-0.0	-0.0	-0.0	243378.484375	-16116.20703125	-445.4169006347656
0.554	-0.0	-0.0	-0.0	-0.0	-0.0	-0.0	2.913402557373047	-8.027652740478516	-804.0236206054688	-0.0	-0.0	-0.0	-0.0	-0.0	-0.0	244455.59375	-16709.66796875	-444.9276123046875
0.5545	-0.0	-0.0	-0.0	-0.0	-0.0	-0.0	2.437258720397949	-6.772847652435303	-804.7764892578125	-0.0	-0.0	-0.0	-0.0	-0.0	-0.0	245366.65625	-16800.232421875	-577.670654296875
0.555	-0.0	-0.0	-0.0	-0.0	-0.0	-0.0	2.306480407714844	-6.047645568847656	-806.43017578125	-0.0	-0.0	-0.0	-0.0	-0.0	-0.0	245459.859375	-16963.123046875	-780.5137329101562
0.5555	-0.0	-0.0	-0.0	-0.0	-0.0	-0.0	2.156953811645508	-5.503717422485352	-805.5476684570312	-0.0	-0.0	-0.0	-0.0	-0.0	-0.0	245404.75	-17397.0625	-750.792724609375
0.556	-0.0	-0.0	-0.0	-0.0	-0.0	-0.0	2.0960419178009038	-5.238704204559326	-803.856689453125	-0.0	-0.0	-0.0	-0.0	-0.0	-0.0	244774.03125	-17431.580078125	-810.0807495117188
0.5565	-0.0	-0.0	-0.0	-0.0	-0.0	-0.0	2.4839019775390625	-4.987489700317383	-799.5359497070312	-0.0	-0.0	-0.0	-0.0	-0.0	-0.0	244111.3125	-17398.55859375	-578.85107421875
0.557	-0.0	-0.0	-0.0	-0.0	-0.0	-0.0	2.9966981410980225	-4.843904972076416	-797.7568969726562	-0.0	-0.0	-0.0	-0.0	-0.0	-0.0	243178.0625	-18094.107421875	-589.6283569335938
0.5575	-0.0	-0.0	-0.0	-0.0	-0.0	-0.0	3.390615940093994	-4.5927276611328125	-794.2655639648438	-0.0	-0.0	-0.0	-0.0	-0.0	-0.0	242289.015625	-18118.6015625	-336.2372436523437
0.558	-0.0	-0.0	-0.0	-0.0	-0.0	-0.0	3.2960824966430664	-3.797832489013672	-791.2554931640625	-0.0	-0.0	-0.0	-0.0	-0.0	-0.0	241323.203125	-18393.412109375	-167.3865966796875
0.5585	-0.0	-0.0	-0.0	-0.0	-0.0	-0.0	4.005731105804443	-2.779029369354248	-787.7892456054688	-0.0	-0.0	-0.0	-0.0	-0.0	-0.0	240812.75	-18708.05078125	-221.37974548339844
0.559	-0.0	-0.0	-0.0	-0.0	-0.0	-0.0	4.066977500915527	-2.1397509574890137	-784.9719848632812	-0.0	-0.0	-0.0	-0.0	-0.0	-0.0	239887.359375	-18947.083984375	107.2431640625
0.5595	-0.0	-0.0	-0.0	-0.0	-0.0	-0.0	4.476582050323486	-0.9851594567298888	-780.300048828125	-0.0	-0.0	-0.0	-0.0	-0.0	-0.0	239185.21875	-19493.744140625	128.3798370361328
0.56	-0.0	-0.0	-0.0	-0.0	-0.0	-0.0	4.926873683929443	0.2173941880464553	-777.3995971679688	-0.0	-0.0	-0.0	-0.0	-0.0	-0.0	238578.421875	-19657.6953125	341.2787170410156
0.5605	-0.0	-0.0	-0.0	-0.0	-0.0	-0.0	5.158833026885986	0.9645036458969116	-773.2637329101562	-0.0	-0.0	-0.0	-0.0	-0.0	-0.0	237437.046875	-19887.53125	282.3534851074219
0.561	-0.0	-0.0	-0.0	-0.0	-0.0	-0.0	5.315406799316406	1.983633518218994	-771.411376953125	-0.0	-0.0	-0.0	-0.0	-0.0	-0.0	236694.109375	-20487.759765625	410.499755859375
0.5615	-0.0	-0.0	-0.0	-0.0	-0.0	-0.0	5.984245300292969	2.7244906425476074	-766.494384765625	-0.0	-0.0	-0.0	-0.0	-0.0	-0.0	236111.5	-20792.080078125	429.3004455566406
0.562	-0.0	-0.0	-0.0	-0.0	-0.0	-0.0	5.779704570770264	3.1661365032196045	-762.0614624023438	-0.0	-0.0	-0.0	-0.0	-0.0	-0.0	235235.84375	-21498.69921875	415.6958618164063
0.5625	-0.0	-0.0	-0.0	-0.0	-0.0	-0.0	5.459640979766846	3.554105043411255	-758.4103393554688	-0.0	-0.0	-0.0	-0.0	-0.0	-0.0	234333.546875	-21700.748046875	82.13862609863281
0.5630000000000001	-0.0	-0.0	-0.0	-0.0	-0.0	-0.0	4.537688255310059	3.2330987453460693	-755.6487426757812	-0.0	-0.0	-0.0	-0.0	-0.0	-0.0	233831.296875	-21858.251953125	-203.599853515625
0.5635	-0.0	-0.0	-0.0	-0.0	-0.0	-0.0	4.475742340087891	3.4045190811157227	-752.4217529296875	-0.0	-0.0	-0.0	-0.0	-0.0	-0.0	233229.25	-22234.33203125	-390.5469055175781
0.5640000000000001	-0.0	-0.0	-0.0	-0.0	-0.0	-0.0	5.110022068023682	3.5812346935272217	-750.3794555664062	-0.0	-0.0	-0.0	-0.0	-0.0	-0.0	232762.109375	-23063.509765625	-593.2100219726562
0.5645	-0.0	-0.0	-0.0	-0.0	-0.0	-0.0	6.010319232940674	3.797832489013672	-749.6810302734375	-0.0	-0.0	-0.0	-0.0	-0.0	-0.0	233201.90625	-23519.86328125	-739.2625122070312
0.5650000000000001	-0.0	-0.0	-0.0	-0.0	-0.0	-0.0	6.932743072509766	3.9877192974090576	-747.603271484375	-0.0	-0.0	-0.0	-0.0	-0.0	-0.0	233315.421875	-24184.845703125	-786.089599609375
0.5655	-0.0	-0.0	-0.0	-0.0	-0.0	-0.0	8.44079875946045	5.453703880310059	-750.519287109375	-0.0	-0.0	-0.0	-0.0	-0.0	-0.0	234424.6875	-25028.63671875	-692.6399536132812
0.5660000000000001	-0.0	-0.0	-0.0	-0.0	-0.0	-0.0	9.731712341308594	6.893022060394287	-751.7755126953125	-0.0	-0.0	-0.0	-0.0	-0.0	-0.0	235299.6875	-25459.69921875	-804.2158203125
0.5665	-0.0	-0.0	-0.0	-0.0	-0.0	-0.0	10.09982967376709	8.465740203857422	-753.3278198242188	-0.0	-0.0	-0.0	-0.0	-0.0	-0.0	236494.703125	-25936.333984375	-880.5879516601562
0.5670000000000001	-0.0	-0.0	-0.0	-0.0	-0.0	-0.0	10.228083610534668	8.874988555908203	-754.4647827148438	-0.0	-0.0	-0.0	-0.0	-0.0	-0.0	237301.6875	-26493.310546875	-905.6522216796876
0.5675	-0.0	-0.0	-0.0	-0.0	-0.0	-0.0	10.326623916625977	9.286853790283203	-754.6590576171875	-0.0	-0.0	-0.0	-0.0	-0.0	-0.0	237579.828125	-26951.0	-859.3380737304688
0.5680000000000001	-0.0	-0.0	-0.0	-0.0	-0.0	-0.0	9.922511100769045	8.894411087036133	-753.46923828125	-0.0	-0.0	-0.0	-0.0	-0.0	-0.0	237527.21875	-27133.03125	-1008.020263671875
0.5685	-0.0	-0.0	-0.0	-0.0	-0.0	-0.0	9.353816986083984	8.099586486816406	-752.7708740234375	-0.0	-0.0	-0.0	-0.0	-0.0	-0.0	237722.109375	-27248.49609375	-1320.8951416015625
0.5690000000000001	-0.0	-0.0	-0.0	-0.0	-0.0	-0.0	9.08506965637207	7.559255599975586	-753.0274047851562	-0.0	-0.0	-0.0	-0.0	-0.0	-0.0	237987.0625	-27338.49609375	-1136.2877197265625
